<svg width="37" height="36" viewBox="0 0 37 36" fill="none" xmlns="http://www.w3.org/2000/svg">
<circle cx="18.5" cy="18" r="17.25" fill="#4D5997" stroke="white" stroke-width="1.5"/>
<g clip-path="url(#clip0_1108_19081)">
<path d="M26.75 23.25C26.75 23.6478 26.592 24.0294 26.3107 24.3107C26.0294 24.592 25.6478 24.75 25.25 24.75H11.75C11.3522 24.75 10.9706 24.592 10.6893 24.3107C10.408 24.0294 10.25 23.6478 10.25 23.25V15C10.25 14.6022 10.408 14.2206 10.6893 13.9393C10.9706 13.658 11.3522 13.5 11.75 13.5H14.75L16.25 11.25H20.75L22.25 13.5H25.25C25.6478 13.5 26.0294 13.658 26.3107 13.9393C26.592 14.2206 26.75 14.6022 26.75 15V23.25Z" stroke="white" stroke-width="1.5" stroke-linecap="round" stroke-linejoin="round"/>
<path d="M18.5 21.75C20.1569 21.75 21.5 20.4069 21.5 18.75C21.5 17.0931 20.1569 15.75 18.5 15.75C16.8431 15.75 15.5 17.0931 15.5 18.75C15.5 20.4069 16.8431 21.75 18.5 21.75Z" stroke="white" stroke-width="1.5" stroke-linecap="round" stroke-linejoin="round"/>
</g>
<defs>
<clipPath id="clip0_1108_19081">
<rect width="18" height="18" fill="white" transform="translate(9.5 9)"/>
</clipPath>
</defs>
</svg>
