<svg width="16" height="17" viewBox="0 0 16 17" fill="none" xmlns="http://www.w3.org/2000/svg">
<g clip-path="url(#clip0_3_78)">
<path fill-rule="evenodd" clip-rule="evenodd" d="M3.44812 8.50005C3.44812 7.98043 3.53437 7.48218 3.6885 7.01493L0.992246 4.95605C0.466746 6.02293 0.170746 7.22518 0.170746 8.50005C0.170746 9.77393 0.466496 10.9753 0.991121 12.0416L3.68587 9.97868C3.53325 9.51356 3.44812 9.01718 3.44812 8.50005Z" fill="#FBBC05"/>
<path fill-rule="evenodd" clip-rule="evenodd" d="M8.18212 3.77275C9.311 3.77275 10.3306 4.17275 11.1317 4.82725L13.4622 2.5C12.0421 1.26363 10.2214 0.5 8.18212 0.5C5.01612 0.5 2.29512 2.3105 0.992249 4.956L3.68837 7.01487C4.30962 5.12912 6.0805 3.77275 8.18212 3.77275Z" fill="#EA4335"/>
<path fill-rule="evenodd" clip-rule="evenodd" d="M8.18212 13.2272C6.08062 13.2272 4.30975 11.8709 3.6885 9.98511L0.992249 12.0436C2.29512 14.6895 5.01612 16.5 8.18212 16.5C10.1361 16.5 12.0017 15.8061 13.4019 14.5061L10.8426 12.5276C10.1205 12.9825 9.21112 13.2272 8.18212 13.2272Z" fill="#34A853"/>
<path fill-rule="evenodd" clip-rule="evenodd" d="M15.8293 8.50003C15.8293 8.02728 15.7564 7.51816 15.6471 7.04553H8.18213V10.1364H12.4791C12.2643 11.1903 11.6795 12.0004 10.8426 12.5277L13.4019 14.5062C14.8726 13.1412 15.8293 11.1077 15.8293 8.50003Z" fill="#4285F4"/>
</g>
<defs>
<clipPath id="clip0_3_78">
<rect width="16" height="16" fill="white" transform="translate(0 0.5)"/>
</clipPath>
</defs>
</svg>
