<svg width="195" height="50" viewBox="0 0 195 50" fill="none" xmlns="http://www.w3.org/2000/svg">
<path d="M79.2301 50H81.2362L77.587 43H75.1374L71.4982 50H73.4942L74.2503 48.51H78.4741L79.2301 50ZM74.9257 47.17L76.3672 44.33L77.7987 47.17H74.9257Z" fill="white"/>
<path d="M92.1337 43H87.0127V50H92.1337C93.9583 50 95.5611 48.88 95.5611 46.5C95.5611 44.12 93.9583 43 92.1337 43ZM91.4482 48.49H88.8272V44.51H91.4482C92.8192 44.51 93.7466 44.8 93.7466 46.5C93.7466 48.2 92.8192 48.49 91.4482 48.49Z" fill="white"/>
<path d="M112.367 43H109.917L106.963 47.94L104.01 43H101.56V50H103.375V45.2L106.308 50H107.619L110.552 45.2V50H112.367V43Z" fill="white"/>
<path d="M120.334 43H118.519V50H120.334V43Z" fill="white"/>
<path d="M133.759 43V48.26L128.94 43H126.481V50H128.295V44.75L133.104 50H135.574V43H133.759Z" fill="white"/>
<path d="M33.6754 2.81025H25.1074V0.42872H45.251V2.81025H36.6546V15.3745C36.6548 16.1736 36.349 16.9437 35.7975 17.533C35.246 18.1222 34.4888 18.4877 33.6754 18.5573V2.81025Z" fill="white"/>
<path d="M57.1904 18.5684V0.42872H73.3371C73.2657 1.0756 72.9531 1.67399 72.459 2.10931C71.9649 2.54462 71.3241 2.78627 70.6593 2.78799H60.1639V8.18539H68.1975V10.489H60.1639V16.198H71.0402C71.7041 16.1996 72.3442 16.4405 72.8382 16.8746C73.3321 17.3088 73.6454 17.9058 73.718 18.5517L57.1904 18.5684Z" fill="white"/>
<path d="M161.075 18.5684L159.165 14.2449H149.238L147.356 18.5684H144.326L152.666 0.42872H155.788L164.157 18.5684H161.075ZM150.193 12.0804H158.232L154.201 2.9271L150.193 12.0804Z" fill="white"/>
<path d="M176.738 18.5686V0.428878H187.103C188.546 0.397464 189.979 0.662854 191.31 1.20788C192.412 1.66121 193.352 2.42415 194.011 3.40022C194.655 4.41987 194.981 5.60153 194.949 6.80003C194.983 8.03171 194.634 9.24447 193.948 10.2777C193.238 11.2736 192.231 12.0313 191.066 12.4478L190.725 12.5758L195 18.5463C193.964 18.4654 192.959 18.161 192.058 17.6549C191.157 17.1489 190.381 16.4537 189.786 15.6195L187.956 13.0766H187.791C187.556 13.0977 187.321 13.1069 187.086 13.1044H179.695V18.5519L176.738 18.5686ZM179.718 10.8175H186.938C188.547 10.8175 189.781 10.4725 190.639 9.7825C191.051 9.39896 191.379 8.93757 191.603 8.42632C191.826 7.91507 191.942 7.36462 191.942 6.80837C191.942 6.25213 191.826 5.70169 191.603 5.19044C191.379 4.67919 191.051 4.21779 190.639 3.83424C189.562 3.08836 188.255 2.72696 186.938 2.81041H179.718V10.8175Z" fill="white"/>
<path d="M115.944 18.5684V0.42872H118.923V16.1869H131.209C131.88 16.1886 132.527 16.4326 133.025 16.8721C133.523 17.3116 133.838 17.9156 133.91 18.5684H115.944Z" fill="white"/>
<path d="M87.0902 18.5684V0.42872H90.0693V16.1869H102.356C103.027 16.1873 103.675 16.4306 104.175 16.8703C104.674 17.3099 104.99 17.9147 105.062 18.5684H87.0902Z" fill="white"/>
<path d="M7.93746 18.8356C7.36892 18.8356 6.7492 18.8078 6.08969 18.7577V16.4151C6.76626 16.4763 7.43714 16.5097 7.93746 16.5097C9.09507 16.5841 10.2505 16.3352 11.2691 15.7919C11.6295 15.5929 11.9291 15.3033 12.137 14.9531C12.3449 14.603 12.4535 14.2049 12.4517 13.7999C12.4598 13.5114 12.4029 13.2248 12.285 12.9603C12.1671 12.6958 11.991 12.46 11.7695 12.2697C11.1681 11.8378 10.4975 11.5069 9.78523 11.2904C9.42136 11.1679 8.77891 11.04 8.0796 10.9009C7.59634 10.8007 7.09602 10.7005 6.66961 10.5948C6.2432 10.4891 5.79405 10.4001 5.39038 10.311C4.60399 10.1679 3.82885 9.97083 3.07072 9.72123C2.23219 9.38865 1.48881 8.8616 0.904567 8.18547C0.270289 7.41264 -0.0496545 6.43758 0.00626523 5.44782C0.000514847 4.4983 0.28353 3.56858 0.819289 2.77695C1.45683 1.93214 2.31505 1.27094 3.30383 0.862819C3.62221 0.729276 3.95197 0.60687 4.27035 0.506712H4.33289C5.46853 0.161915 6.65182 -0.00889063 7.84081 0.00035627C9.43706 0.0101132 11.0218 0.265474 12.537 0.757096L13.0203 0.918466L13.1169 0.957421L14.6975 1.60844C13.6911 2.23164 12.5654 2.92163 11.8206 2.92163C11.747 2.9307 11.6725 2.9307 11.5989 2.92163C11.5079 2.92163 11.0645 2.82702 10.82 2.78807H10.6437C9.63696 2.53205 8.60234 2.39568 7.56223 2.38189C5.33353 2.38189 4.28172 3.13307 4.0941 3.2833C3.74446 3.5054 3.45722 3.80965 3.25859 4.1683C3.05997 4.52695 2.95629 4.92859 2.95701 5.33654C2.94916 5.62198 3.00572 5.90561 3.12266 6.16721C3.2396 6.42882 3.41405 6.66196 3.63358 6.85004C4.09994 7.23754 4.64139 7.529 5.22551 7.70695C5.85091 7.91283 7.82944 8.3524 8.84714 8.53046C10.0122 8.6874 11.1562 8.96917 12.2584 9.37067C13.1091 9.69699 13.8689 10.2156 14.4757 10.8842C15.1082 11.645 15.4285 12.6091 15.374 13.5884C15.3828 14.5306 15.1015 15.4536 14.5667 16.237C13.9399 17.0894 13.0781 17.7494 12.0822 18.1401C10.7637 18.6468 9.35308 18.8835 7.93746 18.8356Z" fill="white"/>
</svg>
