<svg width="180" height="18" viewBox="0 0 180 18" fill="none" xmlns="http://www.w3.org/2000/svg">
<path d="M28.5074 2.90888H21.2544V0.851257H38.3065V2.90888H31.0294V13.7643C31.0296 14.4547 30.7707 15.1201 30.3038 15.6292C29.8369 16.1383 29.196 16.4541 28.5074 16.5142V2.90888Z" fill="#2D3E52"/>
<path d="M48.4136 16.5142V0.841644H62.0822C62.0217 1.40009 61.7568 1.91655 61.3385 2.29187C60.9201 2.6672 60.3777 2.87494 59.8153 2.87524H50.9307V7.55778H57.7313V9.54329H50.9307V14.4806H60.1378C60.7001 14.4809 61.2425 14.6887 61.6609 15.064C62.0793 15.4393 62.3442 15.9558 62.4047 16.5142H48.4136Z" fill="#2D3E52"/>
<path d="M136.355 16.5142L134.738 12.774H126.334L124.741 16.5142H122.176L129.236 0.841644H131.879L138.963 16.5142H136.355ZM127.143 10.9038H133.948L130.536 2.99061L127.143 10.9038Z" fill="#2D3E52"/>
<path d="M149.614 16.5142V0.841604H158.388C159.609 0.814462 160.823 1.04376 161.95 1.51466C162.883 1.90483 163.679 2.56433 164.236 3.40883C164.781 4.28979 165.057 5.31074 165.03 6.34624C165.059 7.4104 164.763 8.45822 164.183 9.35096C163.582 10.2111 162.73 10.8644 161.743 11.2211L161.454 11.3317L165.073 16.5142C164.196 16.4443 163.346 16.1812 162.583 15.744C161.82 15.3068 161.163 14.7062 160.66 13.9854L159.11 11.7788H158.97C158.772 11.797 158.573 11.805 158.374 11.8028H152.117V16.5142H149.614ZM152.136 9.81729H158.249C159.611 9.81729 160.655 9.51441 161.382 8.92308C161.75 8.60605 162.041 8.209 162.232 7.76235C162.423 7.31569 162.509 6.83129 162.484 6.34624C162.51 5.86318 162.425 5.38056 162.233 4.93607C162.042 4.49157 161.751 4.09722 161.382 3.78382C160.469 3.13938 159.364 2.82713 158.249 2.89923H152.136V9.81729Z" fill="#2D3E52"/>
<path d="M98.1499 16.5142V0.841644H100.672V14.4566H111.073C111.64 14.4581 112.188 14.6689 112.61 15.0486C113.031 15.4283 113.298 15.9502 113.359 16.5142H98.1499Z" fill="#2D3E52"/>
<path d="M73.7245 16.5142V0.841644H76.2465V14.4566H86.6472C87.2159 14.4569 87.7644 14.6672 88.1873 15.047C88.6101 15.4268 88.8776 15.9494 88.9381 16.5142H73.7245Z" fill="#2D3E52"/>
<path d="M6.71935 16.7546C6.23806 16.7546 5.71345 16.7306 5.15516 16.6873V14.6585C5.72789 14.7114 6.29581 14.7451 6.71935 14.7451C7.6993 14.8094 8.67738 14.5943 9.53971 14.1249C9.84445 13.9525 10.0978 13.7023 10.2737 13.3998C10.4496 13.0974 10.5418 12.7536 10.5408 12.4038C10.5483 12.1545 10.5004 11.9066 10.4006 11.678C10.3007 11.4494 10.1513 11.2457 9.96324 11.0817C9.45533 10.7067 8.88736 10.4206 8.28354 10.2356C7.97551 10.1298 7.43166 10.0192 6.83967 9.89905C6.43058 9.81251 6.00704 9.72117 5.64608 9.63464C5.28511 9.5481 4.90489 9.46637 4.56317 9.38945C3.89796 9.26358 3.24194 9.09334 2.59951 8.87985C1.89168 8.598 1.26257 8.14936 0.765802 7.5722C0.228546 6.90278 -0.0422604 6.05874 0.00536394 5.20208C0.00145126 4.38334 0.240991 3.58187 0.693612 2.89927C1.23209 2.16818 1.95896 1.59664 2.79684 1.24547C3.06637 1.13009 3.34551 1.02433 3.61503 0.937796H3.66798C4.62932 0.639894 5.63102 0.492319 6.63753 0.500308C7.9888 0.508738 9.33034 0.729368 10.613 1.15413L11.0221 1.29355L11.1039 1.32721L12.4419 1.88488C11.59 2.42813 10.637 3.02427 10.0066 3.02427C9.94411 3.02974 9.8813 3.02974 9.81885 3.02427C9.74185 3.02427 9.36644 2.94254 9.15949 2.90889L9.01029 2.88484C8.15803 2.66365 7.28219 2.54582 6.4017 2.5339C4.51505 2.5339 3.62466 3.18292 3.46584 3.31272C3.16985 3.50461 2.92669 3.76748 2.75855 4.07735C2.59041 4.38723 2.50265 4.73424 2.50326 5.08671C2.49694 5.33328 2.54496 5.57823 2.64394 5.8042C2.74291 6.03017 2.89041 6.23165 3.07599 6.39436C3.47078 6.72916 3.92913 6.98096 4.4236 7.13471C4.95302 7.31259 6.62791 7.69239 7.48942 7.84623C8.47571 7.98183 9.4441 8.22528 10.3772 8.57218C11.0982 8.85247 11.7417 9.30081 12.2542 9.87983C12.7889 10.5357 13.06 11.3669 13.0146 12.2115C13.0236 13.0257 12.7853 13.8236 12.3312 14.4999C11.8033 15.2389 11.073 15.8098 10.228 16.1441C9.11337 16.5881 7.91859 16.796 6.71935 16.7546Z" fill="#2D3E52"/>
<path d="M177.837 10.5432C178.394 10.8589 178.854 11.319 179.17 11.8749C179.494 12.45 179.66 13.1 179.651 13.7595C179.664 14.4225 179.498 15.0767 179.17 15.6537C178.662 16.5071 177.837 17.1263 176.875 17.3773C175.914 17.6283 174.891 17.491 174.03 16.995C173.47 16.6726 173.006 16.2061 172.687 15.6441C172.366 15.0704 172.197 14.424 172.197 13.7667C172.197 13.1094 172.366 12.4631 172.687 11.8894C173.007 11.3261 173.472 10.8594 174.035 10.5384C174.621 10.2059 175.286 10.0397 175.96 10.0577C176.617 10.0532 177.264 10.2206 177.837 10.5432ZM177.51 16.5046C177.978 16.2267 178.365 15.8304 178.631 15.3556C178.908 14.8696 179.051 14.3187 179.045 13.7595C179.051 13.2051 178.914 12.6585 178.646 12.173C178.384 11.7046 177.999 11.3159 177.534 11.048C177.049 10.7712 176.499 10.6301 175.941 10.6394C175.378 10.6329 174.823 10.7756 174.333 11.0529C173.864 11.3238 173.477 11.7157 173.212 12.1874C172.943 12.6758 172.803 13.224 172.803 13.7811C172.803 14.3383 172.943 14.8864 173.212 15.3748C173.475 15.8462 173.861 16.2381 174.328 16.5094C174.814 16.7819 175.362 16.925 175.919 16.925C176.476 16.925 177.024 16.7819 177.51 16.5094V16.5046ZM177.635 13.9374C177.481 14.1545 177.267 14.3217 177.019 14.4181L177.948 15.8604H177.038L176.215 14.5912H175.253V15.8604H174.367V11.7067H176.1C176.559 11.6794 177.013 11.8175 177.38 12.0961C177.536 12.2239 177.66 12.3857 177.743 12.569C177.827 12.7524 177.867 12.9524 177.861 13.1538C177.866 13.4316 177.787 13.7045 177.635 13.9374ZM176.047 13.8845C176.29 13.9009 176.531 13.833 176.73 13.6922C176.811 13.6273 176.875 13.5443 176.918 13.4499C176.96 13.3555 176.98 13.2524 176.976 13.1489C176.981 13.0461 176.962 12.9434 176.919 12.8497C176.876 12.7559 176.811 12.6739 176.73 12.6105C176.53 12.4718 176.29 12.4041 176.047 12.4182H175.262V13.8605L176.047 13.8845Z" fill="#2D3E52"/>
</svg>
