<svg width="31" height="31" viewBox="0 0 31 31" fill="none" xmlns="http://www.w3.org/2000/svg">
<path fill-rule="evenodd" clip-rule="evenodd" d="M1.21056 31C1.05455 31 0.897268 30.9698 0.747431 30.9078C0.295013 30.7203 0 30.2788 0 29.789L0.000665943 15.6465C-0.0950483 1.79947 16.7542 -5.24079 26.5154 4.57325C36.173 14.3732 29.2004 31.0121 15.4265 31C12.9866 31 10.6575 30.4528 8.50373 29.3734C6.44579 28.3419 3.95425 28.7578 2.3038 30.4084L2.06697 30.6453C1.83534 30.877 1.52562 31 1.21056 31ZM6.13071 26.3895C7.30652 26.3895 8.48942 26.6572 9.58871 27.2082C11.4059 28.1191 13.3755 28.5801 15.4401 28.5781C27.0143 28.5951 32.9456 14.4555 24.7946 6.2773C16.5267 -1.99749 2.36225 3.92939 2.42219 15.629L2.42225 15.6406L2.4217 27.3301C3.56906 26.7096 4.8455 26.3895 6.13071 26.3895ZM10.3524 17.0139C11.1883 17.0139 11.8659 16.3362 11.8659 15.5003C11.8659 14.6643 11.1883 13.9866 10.3524 13.9866C8.34533 14.0661 8.34478 16.9342 10.3524 17.0139ZM15.5588 13.9866C14.723 13.9866 14.0453 14.6643 14.0453 15.5003C14.1251 17.5081 16.9929 17.5075 17.0723 15.5003C17.0723 14.6643 16.3947 13.9866 15.5588 13.9866ZM19.2518 15.5003C19.2518 14.6643 19.9295 13.9866 20.7654 13.9866C21.6012 13.9866 22.2789 14.6643 22.2789 15.5003C22.1994 17.5075 19.3316 17.5081 19.2518 15.5003Z" fill="#1C364D"/>
</svg>
