<svg width="80" height="80" viewBox="0 0 80 80" fill="none" xmlns="http://www.w3.org/2000/svg">
<circle cx="40" cy="40" r="40" fill="#748BB2"/>
<path d="M40.748 32.648V50H37.904V38.792C37.904 38.344 37.928 37.86 37.976 37.34L32.732 47.192C32.484 47.664 32.104 47.9 31.592 47.9H31.136C30.624 47.9 30.244 47.664 29.996 47.192L24.692 37.304C24.716 37.568 24.736 37.828 24.752 38.084C24.768 38.34 24.776 38.576 24.776 38.792V50H21.932V32.648H24.368C24.512 32.648 24.636 32.652 24.74 32.66C24.844 32.668 24.936 32.688 25.016 32.72C25.104 32.752 25.18 32.804 25.244 32.876C25.316 32.948 25.384 33.044 25.448 33.164L30.644 42.8C30.78 43.056 30.904 43.32 31.016 43.592C31.136 43.864 31.252 44.144 31.364 44.432C31.476 44.136 31.592 43.852 31.712 43.58C31.832 43.3 31.96 43.032 32.096 42.776L37.22 33.164C37.284 33.044 37.352 32.948 37.424 32.876C37.496 32.804 37.572 32.752 37.652 32.72C37.74 32.688 37.836 32.668 37.94 32.66C38.044 32.652 38.168 32.648 38.312 32.648H40.748ZM60.0275 41.324C60.0275 42.596 59.8155 43.764 59.3915 44.828C58.9675 45.892 58.3715 46.808 57.6035 47.576C56.8355 48.344 55.9115 48.94 54.8315 49.364C53.7515 49.788 52.5515 50 51.2315 50H44.6195V32.648H51.2315C52.5515 32.648 53.7515 32.864 54.8315 33.296C55.9115 33.72 56.8355 34.316 57.6035 35.084C58.3715 35.844 58.9675 36.756 59.3915 37.82C59.8155 38.884 60.0275 40.052 60.0275 41.324ZM56.7155 41.324C56.7155 40.372 56.5875 39.52 56.3315 38.768C56.0835 38.008 55.7195 37.368 55.2395 36.848C54.7675 36.32 54.1915 35.916 53.5115 35.636C52.8395 35.356 52.0795 35.216 51.2315 35.216H47.8595V47.432H51.2315C52.0795 47.432 52.8395 47.292 53.5115 47.012C54.1915 46.732 54.7675 46.332 55.2395 45.812C55.7195 45.284 56.0835 44.644 56.3315 43.892C56.5875 43.132 56.7155 42.276 56.7155 41.324Z" fill="white"/>
<circle opacity="0.75" cx="40" cy="40" r="40" fill="#2D3E52"/>
<path d="M53.75 48.75C53.75 49.413 53.4866 50.0489 53.0178 50.5178C52.5489 50.9866 51.913 51.25 51.25 51.25H28.75C28.087 51.25 27.4511 50.9866 26.9822 50.5178C26.5134 50.0489 26.25 49.413 26.25 48.75V35C26.25 34.337 26.5134 33.7011 26.9822 33.2322C27.4511 32.7634 28.087 32.5 28.75 32.5H33.75L36.25 28.75H43.75L46.25 32.5H51.25C51.913 32.5 52.5489 32.7634 53.0178 33.2322C53.4866 33.7011 53.75 34.337 53.75 35V48.75Z" stroke="white" stroke-width="2" stroke-linecap="round" stroke-linejoin="round"/>
<path d="M40 46.25C42.7614 46.25 45 44.0114 45 41.25C45 38.4886 42.7614 36.25 40 36.25C37.2386 36.25 35 38.4886 35 41.25C35 44.0114 37.2386 46.25 40 46.25Z" stroke="white" stroke-width="2" stroke-linecap="round" stroke-linejoin="round"/>
</svg>
